<svg width="120" height="32" viewBox="0 0 120 32" fill="none" xmlns="http://www.w3.org/2000/svg">
<g filter="url(#filter0_d_10328_102)">
<path d="M32.3871 20V8.54545H34.9673V10.4918H35.1016C35.3402 9.83558 35.7354 9.32351 36.2873 8.95561C36.8391 8.58274 37.4979 8.39631 38.2635 8.39631C39.0391 8.39631 39.6928 8.58523 40.2248 8.96307C40.7617 9.33594 41.1396 9.84553 41.3583 10.4918H41.4776C41.7312 9.85547 42.1587 9.34837 42.7603 8.97053C43.3668 8.58771 44.0852 8.39631 44.9155 8.39631C45.9695 8.39631 46.8295 8.7294 47.4957 9.3956C48.1619 10.0618 48.495 11.0337 48.495 12.3114V20H45.788V12.729C45.788 12.0181 45.5991 11.4986 45.2212 11.1705C44.8434 10.8374 44.381 10.6708 43.8342 10.6708C43.1829 10.6708 42.6733 10.8746 42.3054 11.2823C41.9425 11.685 41.761 12.2095 41.761 12.8558V20H39.1136V12.6172C39.1136 12.0256 38.9347 11.5533 38.5767 11.2003C38.2237 10.8473 37.7614 10.6708 37.1896 10.6708C36.8018 10.6708 36.4489 10.7702 36.1307 10.9691C35.8125 11.163 35.5589 11.4389 35.37 11.7969C35.1811 12.1499 35.0866 12.5625 35.0866 13.0348V20H32.3871ZM56.2302 20.2237C55.1116 20.2237 54.1421 19.9776 53.3218 19.4854C52.5015 18.9933 51.8651 18.3047 51.4127 17.4197C50.9653 16.5348 50.7416 15.5007 50.7416 14.3175C50.7416 13.1342 50.9653 12.0977 51.4127 11.2077C51.8651 10.3178 52.5015 9.62678 53.3218 9.13459C54.1421 8.6424 55.1116 8.39631 56.2302 8.39631C57.3488 8.39631 58.3183 8.6424 59.1386 9.13459C59.9589 9.62678 60.5928 10.3178 61.0402 11.2077C61.4926 12.0977 61.7188 13.1342 61.7188 14.3175C61.7188 15.5007 61.4926 16.5348 61.0402 17.4197C60.5928 18.3047 59.9589 18.9933 59.1386 19.4854C58.3183 19.9776 57.3488 20.2237 56.2302 20.2237ZM56.2451 18.0611C56.8517 18.0611 57.3588 17.8945 57.7664 17.5614C58.1741 17.2234 58.4774 16.771 58.6762 16.2042C58.8801 15.6374 58.982 15.006 58.982 14.31C58.982 13.609 58.8801 12.9751 58.6762 12.4084C58.4774 11.8366 58.1741 11.3817 57.7664 11.0437C57.3588 10.7056 56.8517 10.5366 56.2451 10.5366C55.6237 10.5366 55.1066 10.7056 54.694 11.0437C54.2863 11.3817 53.9806 11.8366 53.7767 12.4084C53.5779 12.9751 53.4784 13.609 53.4784 14.31C53.4784 15.006 53.5779 15.6374 53.7767 16.2042C53.9806 16.771 54.2863 17.2234 54.694 17.5614C55.1066 17.8945 55.6237 18.0611 56.2451 18.0611ZM73.852 8.54545L69.7728 20H66.7899L62.7107 8.54545H65.5892L68.2217 17.0543H68.341L70.9809 8.54545H73.852ZM75.7201 20V8.54545H78.4197V20H75.7201ZM77.0773 6.91974C76.6498 6.91974 76.2819 6.77805 75.9736 6.49467C75.6654 6.20632 75.5113 5.86079 75.5113 5.4581C75.5113 5.05043 75.6654 4.7049 75.9736 4.42152C76.2819 4.13317 76.6498 3.98899 77.0773 3.98899C77.5099 3.98899 77.8778 4.13317 78.181 4.42152C78.4893 4.7049 78.6434 5.05043 78.6434 5.4581C78.6434 5.86079 78.4893 6.20632 78.181 6.49467C77.8778 6.77805 77.5099 6.91974 77.0773 6.91974ZM86.2667 20.2237C85.1183 20.2237 84.1264 19.9851 83.2912 19.5078C82.4609 19.0256 81.8221 18.3445 81.3746 17.4645C80.9272 16.5795 80.7035 15.538 80.7035 14.3398C80.7035 13.1616 80.9272 12.1275 81.3746 11.2376C81.8271 10.3427 82.4585 9.64666 83.2688 9.1495C84.0792 8.64737 85.0312 8.39631 86.125 8.39631C86.831 8.39631 87.4972 8.51065 88.1236 8.73935C88.755 8.96307 89.3118 9.31108 89.794 9.78338C90.2813 10.2557 90.6641 10.8572 90.9425 11.5881C91.2209 12.3139 91.3601 13.179 91.3601 14.1832V15.011H81.9712V13.1914H88.7724C88.7674 12.6744 88.6555 12.2145 88.4368 11.8118C88.218 11.4041 87.9123 11.0835 87.5195 10.8498C87.1317 10.6161 86.6793 10.4993 86.1623 10.4993C85.6104 10.4993 85.1257 10.6335 84.7081 10.902C84.2905 11.1655 83.9648 11.5135 83.7312 11.946C83.5025 12.3736 83.3857 12.8434 83.3807 13.3555V14.9439C83.3807 15.6101 83.5025 16.1818 83.7461 16.6591C83.9897 17.1314 84.3303 17.4943 84.7678 17.7479C85.2053 17.9964 85.7173 18.1207 86.304 18.1207C86.6967 18.1207 87.0522 18.0661 87.3704 17.9567C87.6886 17.8423 87.9645 17.6758 88.1982 17.457C88.4318 17.2383 88.6083 16.9673 88.7276 16.6442L91.2482 16.9276C91.0891 17.5937 90.7859 18.1754 90.3384 18.6726C89.896 19.1648 89.3292 19.5476 88.6381 19.821C87.9471 20.0895 87.1566 20.2237 86.2667 20.2237ZM96.3435 4.72727V20H93.6439V4.72727H96.3435ZM99.1195 20V8.54545H101.819V20H99.1195ZM100.477 6.91974C100.049 6.91974 99.6813 6.77805 99.373 6.49467C99.0648 6.20632 98.9107 5.86079 98.9107 5.4581C98.9107 5.05043 99.0648 4.7049 99.373 4.42152C99.6813 4.13317 100.049 3.98899 100.477 3.98899C100.909 3.98899 101.277 4.13317 101.58 4.42152C101.889 4.7049 102.043 5.05043 102.043 5.4581C102.043 5.86079 101.889 6.20632 101.58 6.49467C101.277 6.77805 100.909 6.91974 100.477 6.91974ZM104.714 20V4.72727H107.414V10.4396H107.526C107.665 10.1612 107.861 9.86541 108.115 9.5522C108.369 9.23402 108.712 8.96307 109.144 8.73935C109.577 8.51065 110.128 8.39631 110.8 8.39631C111.685 8.39631 112.483 8.62251 113.193 9.07493C113.909 9.52237 114.476 10.1861 114.894 11.0661C115.316 11.9411 115.528 13.0149 115.528 14.2876C115.528 15.5455 115.321 16.6143 114.909 17.4943C114.496 18.3743 113.934 19.0455 113.223 19.5078C112.512 19.9702 111.707 20.2013 110.807 20.2013C110.151 20.2013 109.606 20.092 109.174 19.8732C108.741 19.6545 108.393 19.391 108.13 19.0827C107.871 18.7695 107.67 18.4737 107.526 18.1953H107.369V20H104.714ZM107.362 14.2727C107.362 15.0135 107.466 15.6623 107.675 16.2191C107.889 16.7759 108.195 17.2109 108.592 17.5241C108.995 17.8324 109.482 17.9865 110.054 17.9865C110.65 17.9865 111.15 17.8274 111.553 17.5092C111.956 17.1861 112.259 16.7461 112.463 16.1893C112.671 15.6275 112.776 14.9886 112.776 14.2727C112.776 13.5618 112.674 12.9304 112.47 12.3786C112.266 11.8267 111.963 11.3942 111.56 11.081C111.158 10.7678 110.655 10.6112 110.054 10.6112C109.477 10.6112 108.987 10.7628 108.585 11.0661C108.182 11.3693 107.876 11.7944 107.668 12.3413C107.464 12.8881 107.362 13.532 107.362 14.2727Z" fill="white"/>
<path d="M27.6 13.5L10.35 23.4593L10.35 3.54071L27.6 13.5Z" fill="#F89A09"/>
<path d="M23 13.5L5.75 23.4593L5.75 3.54071L23 13.5Z" fill="#FFBA51"/>
</g>
<defs>
<filter id="filter0_d_10328_102" x="1.75" y="3.54071" width="117.778" height="27.9186" filterUnits="userSpaceOnUse" color-interpolation-filters="sRGB">
<feFlood flood-opacity="0" result="BackgroundImageFix"/>
<feColorMatrix in="SourceAlpha" type="matrix" values="0 0 0 0 0 0 0 0 0 0 0 0 0 0 0 0 0 0 127 0" result="hardAlpha"/>
<feOffset dy="4"/>
<feGaussianBlur stdDeviation="2"/>
<feComposite in2="hardAlpha" operator="out"/>
<feColorMatrix type="matrix" values="0 0 0 0 0 0 0 0 0 0 0 0 0 0 0 0 0 0 0.25 0"/>
<feBlend mode="normal" in2="BackgroundImageFix" result="effect1_dropShadow_10328_102"/>
<feBlend mode="normal" in="SourceGraphic" in2="effect1_dropShadow_10328_102" result="shape"/>
</filter>
</defs>
</svg>
